<svg xmlns="http://www.w3.org/2000/svg" width="32" height="32" viewBox="0 0 64 64" fill="none">
  <defs>
    <linearGradient id="g" x1="0" y1="0" x2="1" y2="1">
      <stop offset="0" stop-color="hsl(200,100%,60%)"/>
      <stop offset="1" stop-color="hsl(280,100%,70%)"/>
    </linearGradient>
  </defs>
  <rect x="4" y="4" width="56" height="56" rx="14" fill="url(#g)" opacity="0.85"/>
  <path d="M20 34c0-8 6-14 14-14 3.2 0 6.1 1.1 8.4 2.9l-4.6 4.6c-1.1-.8-2.5-1.3-3.9-1.3-3.6 0-6.6 3-6.6 6.6s3 6.6 6.6 6.6c1.7 0 3.2-.6 4.3-1.6l4.7 4.7C39.7 45.5 36.5 46.6 34 46.6 26 46.6 20 42 20 34Z" fill="#0b0b10" opacity="0.9"/>
</svg>


